RobotoExtremo-XOPQmax.ufo
<glyph name="dollar" format="2">
  <advance width="1484"/>
  <unicode hex="0024"/>
  <outline>
    <contour>
      <point x="86.0" y="379.0" type="line" smooth="yes"/>
      <point x="86.0" y="176.0"/>
      <point x="450.0" y="0.0"/>
      <point x="751.0" y="0.0" type="qcurve" smooth="yes"/>
      <point x="1053.0" y="0.0"/>
      <point x="1407.0" y="180.0"/>
      <point x="1407.0" y="365.0" type="qcurve" smooth="yes"/>
      <point x="1407.0" y="550.0"/>
      <point x="1152.0" y="811.0"/>
      <point x="860.0" y="878.0" type="qcurve" smooth="yes"/>
      <point x="571.0" y="947.0"/>
      <point x="454.0" y="1011.0"/>
      <point x="454.0" y="1104.0" type="qcurve" smooth="yes"/>
      <point x="454.0" y="1217.0"/>
      <point x="594.0" y="1309.0"/>
      <point x="741.0" y="1309.0" type="qcurve" smooth="yes"/>
      <point x="889.0" y="1309.0"/>
      <point x="1039.0" y="1196.0"/>
      <point x="1039.0" y="1077.0" type="qcurve" smooth="yes"/>
      <point x="1039.0" y="1065.0" type="line"/>
      <point x="1379.0" y="1065.0" type="line"/>
      <point x="1379.0" y="1077.0" type="line" smooth="yes"/>
      <point x="1379.0" y="1258.0"/>
      <point x="1034.0" y="1458.0"/>
      <point x="741.0" y="1458.0" type="qcurve" smooth="yes"/>
      <point x="447.0" y="1458.0"/>
      <point x="114.0" y="1279.0"/>
      <point x="114.0" y="1104.0" type="qcurve" smooth="yes"/>
      <point x="114.0" y="929.0"/>
      <point x="359.0" y="686.0"/>
      <point x="651.0" y="615.0" type="qcurve" smooth="yes"/>
      <point x="940.0" y="546.0"/>
      <point x="1067.0" y="468.0"/>
      <point x="1067.0" y="365.0" type="qcurve" smooth="yes"/>
      <point x="1067.0" y="251.0"/>
      <point x="904.0" y="159.0"/>
      <point x="751.0" y="159.0" type="qcurve" smooth="yes"/>
      <point x="597.0" y="159.0"/>
      <point x="426.0" y="243.0"/>
      <point x="426.0" y="379.0" type="qcurve" smooth="yes"/>
      <point x="426.0" y="392.0" type="line"/>
      <point x="86.0" y="392.0" type="line"/>
    </contour>
    <contour>
      <point x="617.0" y="-150.0" type="line"/>
      <point x="897.0" y="-150.0" type="line"/>
      <point x="897.0" y="90.0" type="line"/>
      <point x="877.0" y="90.0" type="line"/>
      <point x="877.0" y="758.0" type="line"/>
      <point x="617.0" y="758.0" type="line"/>
    </contour>
    <contour>
      <point x="617.0" y="758.0" type="line"/>
      <point x="877.0" y="758.0" type="line"/>
      <point x="877.0" y="1605.0" type="line"/>
      <point x="597.0" y="1605.0" type="line"/>
      <point x="597.0" y="1365.0" type="line"/>
      <point x="617.0" y="1355.0" type="line"/>
    </contour>
  </outline>
</glyph>
<glyph name="parenright" format="2">
  <advance width="845"/>
  <unicode hex="0029"/>
  <outline>
    <contour>
      <point x="36.0" y="-436.0" type="line"/>
      <point x="305.0" y="-340.0"/>
      <point x="721.0" y="120.0"/>
      <point x="721.0" y="515.0" type="qcurve" smooth="yes"/>
      <point x="721.0" y="525.0" type="line" smooth="yes"/>
      <point x="721.0" y="920.0"/>
      <point x="305.0" y="1380.0"/>
      <point x="36.0" y="1476.0" type="qcurve"/>
      <point x="36.0" y="1316.0" type="line"/>
      <point x="155.0" y="1240.0"/>
      <point x="381.0" y="880.0"/>
      <point x="381.0" y="532.0" type="qcurve" smooth="yes"/>
      <point x="381.0" y="508.0" type="line" smooth="yes"/>
      <point x="381.0" y="160.0"/>
      <point x="155.0" y="-200.0"/>
      <point x="36.0" y="-276.0" type="qcurve"/>
    </contour>
  </outline>
</glyph>
<glyph name="period" format="2">
  <advance width="762"/>
  <unicode hex="002E"/>
  <outline>
    <contour>
      <point x="160.0" y="103.0" type="qcurve" smooth="yes"/>
      <point x="160.0" y="51.0"/>
      <point x="274.0" y="-22.0"/>
      <point x="381.0" y="-22.0" type="qcurve" smooth="yes"/>
      <point x="488.0" y="-22.0"/>
      <point x="602.0" y="51.0"/>
      <point x="602.0" y="103.0" type="qcurve" smooth="yes"/>
      <point x="602.0" y="155.0"/>
      <point x="488.0" y="228.0"/>
      <point x="381.0" y="228.0" type="qcurve" smooth="yes"/>
      <point x="274.0" y="228.0"/>
      <point x="160.0" y="155.0"/>
    </contour>
  </outline>
</glyph>
<glyph name="one" format="2">
  <advance width="1156"/>
  <unicode hex="0031"/>
  <outline>
    <contour>
      <point x="476.0" y="0.0" type="line"/>
      <point x="836.0" y="0.0" type="line"/>
      <point x="836.0" y="1476.0" type="line"/>
      <point x="636.0" y="1476.0" type="line"/>
      <point x="108.0" y="1276.0" type="line"/>
      <point x="108.0" y="1090.0" type="line"/>
      <point x="476.0" y="1245.0" type="line"/>
    </contour>
  </outline>
</glyph>
<glyph name="three" format="2">
  <advance width="1156"/>
  <unicode hex="0033"/>
  <outline>
    <contour>
      <point x="-94.0" y="380.0" type="line" smooth="yes"/>
      <point x="-94.0" y="200.0"/>
      <point x="271.5564853556486" y="-30.0"/>
      <point x="558.0" y="-30.0" type="qcurve" smooth="yes"/>
      <point x="840.0247933884298" y="-30.0"/>
      <point x="1208.0" y="200.0"/>
      <point x="1208.0" y="401.0" type="qcurve" smooth="yes"/>
      <point x="1208.0" y="540.0"/>
      <point x="1042.308154668379" y="730.0"/>
      <point x="904.0" y="762.0" type="qcurve"/>
      <point x="904.0" y="766.0" type="line"/>
      <point x="1036.726267661759" y="816.0"/>
      <point x="1158.0" y="1000.0"/>
      <point x="1158.0" y="1100.0" type="qcurve" smooth="yes"/>
      <point x="1158.0" y="1270.0"/>
      <point x="821.8888888888889" y="1486.0"/>
      <point x="558.0" y="1486.0" type="qcurve" smooth="yes"/>
      <point x="292.5205479452055" y="1486.0"/>
      <point x="-54.0" y="1260.0"/>
      <point x="-54.0" y="1100.0" type="qcurve" smooth="yes"/>
      <point x="-54.0" y="1090.0" type="line"/>
      <point x="306.0" y="1090.0" type="line"/>
      <point x="306.0" y="1100.0" type="line" smooth="yes"/>
      <point x="306.0" y="1210.0"/>
      <point x="448.0" y="1328.0"/>
      <point x="558.0" y="1328.0" type="qcurve" smooth="yes"/>
      <point x="668.0" y="1328.0"/>
      <point x="798.0" y="1210.0"/>
      <point x="798.0" y="1090.0" type="qcurve" smooth="yes"/>
      <point x="798.0" y="970.0"/>
      <point x="648.0" y="836.0"/>
      <point x="510.0" y="836.0" type="qcurve" smooth="yes"/>
      <point x="306.0" y="836.0" type="line"/>
      <point x="306.0" y="682.0" type="line"/>
      <point x="520.0" y="682.0" type="line" smooth="yes"/>
      <point x="670.0" y="682.0"/>
      <point x="848.0" y="540.0"/>
      <point x="848.0" y="400.0" type="qcurve" smooth="yes"/>
      <point x="848.0" y="260.0"/>
      <point x="690.0" y="128.0"/>
      <point x="558.0" y="128.0" type="qcurve" smooth="yes"/>
      <point x="426.0" y="128.0"/>
      <point x="266.0" y="260.0"/>
      <point x="266.0" y="380.0" type="qcurve" smooth="yes"/>
      <point x="266.0" y="390.0" type="line"/>
      <point x="-94.0" y="390.0" type="line"/>
    </contour>
  </outline>
</glyph>
<glyph name="four" format="2">
  <advance width="1156"/>
  <unicode hex="0034"/>
  <outline>
    <contour>
      <point x="674.0" y="0.0" type="line"/>
      <point x="1034.0" y="0.0" type="line"/>
      <point x="1034.0" y="1456.0" type="line"/>
      <point x="734.0" y="1456.0" type="line"/>
      <point x="50.0" y="468.0" type="line"/>
      <point x="50.0" y="212.0" type="line"/>
      <point x="1238.0" y="212.0" type="line"/>
      <point x="1238.0" y="501.0" type="line"/>
      <point x="802.0" y="501.0" type="line"/>
      <point x="725.0" y="501.0" type="line"/>
      <point x="279.0" y="501.0" type="line"/>
      <point x="662.0" y="1069.0" type="line"/>
      <point x="674.0" y="1069.0" type="line"/>
      <point x="674.0" y="451.0" type="line"/>
      <point x="674.0" y="399.0" type="line"/>
    </contour>
  </outline>
</glyph>
<glyph name="seven" format="2">
  <advance width="1156"/>
  <unicode hex="0037"/>
  <outline>
    <contour>
      <point x="290.0" y="0.0" type="line"/>
      <point x="490.0" y="0.0" type="line"/>
      <point x="1050.0" y="1352.0" type="line"/>
      <point x="1050.0" y="1456.0" type="line"/>
      <point x="78.0" y="1456.0" type="line"/>
      <point x="78.0" y="1140.0" type="line"/>
      <point x="782.0" y="1140.0" type="line"/>
    </contour>
  </outline>
</glyph>
<glyph name="eight" format="2">
  <advance width="1156"/>
  <unicode hex="0038"/>
  <outline>
    <contour>
      <point x="-68.0" y="386.0" type="qcurve" smooth="yes"/>
      <point x="-68.0" y="188.0"/>
      <point x="305.0" y="-30.0"/>
      <point x="578.0" y="-30.0" type="qcurve" smooth="yes"/>
      <point x="851.0" y="-30.0"/>
      <point x="1224.0" y="188.0"/>
      <point x="1224.0" y="386.0" type="qcurve" smooth="yes"/>
      <point x="1224.0" y="516.0"/>
      <point x="1056.0" y="698.0"/>
      <point x="918.0" y="743.0" type="qcurve"/>
      <point x="918.0" y="747.0" type="line"/>
      <point x="1023.0" y="790.0"/>
      <point x="1172.0" y="967.0"/>
      <point x="1172.0" y="1087.0" type="qcurve" smooth="yes"/>
      <point x="1172.0" y="1267.0"/>
      <point x="828.0" y="1486.0"/>
      <point x="578.0" y="1486.0" type="qcurve" smooth="yes"/>
      <point x="328.0" y="1486.0"/>
      <point x="-16.0" y="1267.0"/>
      <point x="-16.0" y="1087.0" type="qcurve" smooth="yes"/>
      <point x="-16.0" y="967.0"/>
      <point x="133.0" y="790.0"/>
      <point x="238.0" y="747.0" type="qcurve"/>
      <point x="238.0" y="743.0" type="line"/>
      <point x="100.0" y="698.0"/>
      <point x="-68.0" y="516.0"/>
    </contour>
    <contour>
      <point x="292.0" y="396.0" type="qcurve" smooth="yes"/>
      <point x="292.0" y="516.0"/>
      <point x="448.0" y="666.0"/>
      <point x="578.0" y="666.0" type="qcurve" smooth="yes"/>
      <point x="708.0" y="666.0"/>
      <point x="864.0" y="516.0"/>
      <point x="864.0" y="396.0" type="qcurve" smooth="yes"/>
      <point x="864.0" y="276.0"/>
      <point x="708.0" y="128.0"/>
      <point x="578.0" y="128.0" type="qcurve" smooth="yes"/>
      <point x="448.0" y="128.0"/>
      <point x="292.0" y="276.0"/>
    </contour>
    <contour>
      <point x="334.0" y="1077.0" type="qcurve" smooth="yes"/>
      <point x="334.0" y="1187.0"/>
      <point x="468.0" y="1328.0"/>
      <point x="578.0" y="1328.0" type="qcurve" smooth="yes"/>
      <point x="688.0" y="1328.0"/>
      <point x="822.0" y="1187.0"/>
      <point x="822.0" y="1077.0" type="qcurve" smooth="yes"/>
      <point x="822.0" y="967.0"/>
      <point x="688.0" y="824.0"/>
      <point x="578.0" y="824.0" type="qcurve" smooth="yes"/>
      <point x="468.0" y="824.0"/>
      <point x="334.0" y="967.0"/>
    </contour>
  </outline>
</glyph>
<glyph name="at" format="2">
  <advance width="2644"/>
  <unicode hex="0040"/>
  <outline>
    <contour>
      <point x="769.0" y="400.0" type="qcurve" smooth="yes"/>
      <point x="769.0" y="220.0"/>
      <point x="994.0" y="0.0"/>
      <point x="1184.0" y="0.0" type="qcurve" smooth="yes"/>
      <point x="1276.0" y="0.0"/>
      <point x="1442.0" y="100.0"/>
      <point x="1494.0" y="180.0" type="qcurve"/>
      <point x="1535.0" y="100.0"/>
      <point x="1727.0" y="0.0"/>
      <point x="1854.0" y="0.0" type="qcurve" smooth="yes"/>
      <point x="2138.0" y="0.0"/>
      <point x="2530.0" y="360.0"/>
      <point x="2530.0" y="650.0" type="qcurve" smooth="yes"/>
      <point x="2530.0" y="1000.0"/>
      <point x="1885.0" y="1486.0"/>
      <point x="1364.0" y="1486.0" type="qcurve" smooth="yes"/>
      <point x="856.0" y="1486.0"/>
      <point x="114.0" y="880.0"/>
      <point x="114.0" y="460.0" type="qcurve" smooth="yes"/>
      <point x="114.0" y="40.0"/>
      <point x="796.0" y="-446.0"/>
      <point x="1264.0" y="-446.0" type="qcurve" smooth="yes"/>
      <point x="1404.0" y="-446.0"/>
      <point x="1594.0" y="-400.0"/>
      <point x="1664.0" y="-356.0" type="qcurve"/>
      <point x="1664.0" y="-200.0" type="line"/>
      <point x="1598.0" y="-236.0"/>
      <point x="1404.0" y="-290.0"/>
      <point x="1264.0" y="-290.0" type="qcurve" smooth="yes"/>
      <point x="917.0" y="-290.0"/>
      <point x="454.0" y="100.0"/>
      <point x="454.0" y="460.0" type="qcurve" smooth="yes"/>
      <point x="454.0" y="820.0"/>
      <point x="977.0" y="1330.0"/>
      <point x="1364.0" y="1330.0" type="qcurve" smooth="yes"/>
      <point x="1756.0" y="1330.0"/>
      <point x="2190.0" y="920.0"/>
      <point x="2190.0" y="650.0" type="qcurve" smooth="yes"/>
      <point x="2190.0" y="420.0"/>
      <point x="2014.0" y="136.0"/>
      <point x="1874.0" y="136.0" type="qcurve" smooth="yes"/>
      <point x="1794.0" y="136.0"/>
      <point x="1717.0" y="230.0"/>
      <point x="1734.0" y="350.0" type="qcurve" smooth="yes"/>
      <point x="1854.0" y="946.0" type="line"/>
      <point x="1654.0" y="946.0" type="line"/>
      <point x="1604.0" y="985.0"/>
      <point x="1454.0" y="1052.0"/>
      <point x="1364.0" y="1052.0" type="qcurve" smooth="yes"/>
      <point x="1131.0" y="1052.0"/>
      <point x="769.0" y="680.0"/>
    </contour>
    <contour>
      <point x="1069.0" y="400.0" type="qcurve" smooth="yes"/>
      <point x="1069.0" y="620.0"/>
      <point x="1242.0" y="912.0"/>
      <point x="1374.0" y="912.0" type="qcurve" smooth="yes"/>
      <point x="1414.0" y="912.0"/>
      <point x="1494.0" y="890.0"/>
      <point x="1524.0" y="870.0" type="qcurve"/>
      <point x="1454.0" y="390.0" type="line" smooth="yes"/>
      <point x="1429.0" y="260.0"/>
      <point x="1307.0" y="156.0"/>
      <point x="1234.0" y="156.0" type="qcurve" smooth="yes"/>
      <point x="1154.0" y="156.0"/>
      <point x="1069.0" y="280.0"/>
    </contour>
  </outline>
</glyph>
<glyph name="E" format="2">
  <advance width="1420"/>
  <unicode hex="0045"/>
  <anchor x="784.0" y="1432.0" name="top"/>
  <outline>
    <contour>
      <point x="170.0" y="0.0" type="line"/>
      <point x="1352.0" y="0.0" type="line"/>
      <point x="1352.0" y="158.0" type="line"/>
      <point x="520.0" y="158.0" type="line"/>
      <point x="520.0" y="672.0" type="line"/>
      <point x="1250.0" y="672.0" type="line"/>
      <point x="1250.0" y="830.0" type="line"/>
      <point x="520.0" y="830.0" type="line"/>
      <point x="520.0" y="1298.0" type="line"/>
      <point x="1342.0" y="1298.0" type="line"/>
      <point x="1342.0" y="1456.0" type="line"/>
      <point x="170.0" y="1456.0" type="line"/>
    </contour>
  </outline>
</glyph>
<glyph name="M" format="2">
  <advance width="1954"/>
  <unicode hex="004D"/>
  <outline>
    <contour>
      <point x="170.0" y="0.0" type="line"/>
      <point x="352.0" y="0.0" type="line"/>
      <point x="352.0" y="1051.0" type="line" smooth="yes"/>
      <point x="352.0" y="1081.0"/>
      <point x="346.0" y="1156.0"/>
      <point x="342.0" y="1186.0" type="qcurve"/>
      <point x="354.0" y="1186.0" type="line"/>
      <point x="360.0" y="1156.0"/>
      <point x="385.0" y="1082.0"/>
      <point x="396.0" y="1051.0" type="qcurve" smooth="yes"/>
      <point x="760.0" y="0.0" type="line"/>
      <point x="976.0" y="0.0" type="line"/>
      <point x="1390.0" y="1055.0" type="line" smooth="yes"/>
      <point x="1402.0" y="1085.0"/>
      <point x="1426.0" y="1160.0"/>
      <point x="1432.0" y="1190.0" type="qcurve"/>
      <point x="1444.0" y="1190.0" type="line"/>
      <point x="1440.0" y="1160.0"/>
      <point x="1434.0" y="1085.0"/>
      <point x="1434.0" y="1055.0" type="qcurve" smooth="yes"/>
      <point x="1434.0" y="0.0" type="line"/>
      <point x="1784.0" y="0.0" type="line"/>
      <point x="1784.0" y="1456.0" type="line"/>
      <point x="1372.0" y="1456.0" type="line"/>
      <point x="1013.0" y="559.0" type="line" smooth="yes"/>
      <point x="1001.0" y="529.0"/>
      <point x="980.0" y="464.0"/>
      <point x="972.0" y="434.0" type="qcurve"/>
      <point x="964.0" y="434.0" type="line"/>
      <point x="956.0" y="464.0"/>
      <point x="934.0" y="529.0"/>
      <point x="923.0" y="559.0" type="qcurve" smooth="yes"/>
      <point x="608.0" y="1456.0" type="line"/>
      <point x="170.0" y="1456.0" type="line"/>
    </contour>
  </outline>
</glyph>
<glyph name="N" format="2">
  <advance width="1460"/>
  <unicode hex="004E"/>
  <anchor x="852.0" y="1432.0" name="top"/>
  <outline>
    <contour>
      <point x="170.0" y="0.0" type="line"/>
      <point x="360.0" y="0.0" type="line"/>
      <point x="360.0" y="870.0" type="line" smooth="yes"/>
      <point x="360.0" y="900.0"/>
      <point x="356.0" y="975.0"/>
      <point x="352.0" y="1005.0" type="qcurve"/>
      <point x="362.0" y="1005.0" type="line"/>
      <point x="376.0" y="980.0"/>
      <point x="410.0" y="921.0"/>
      <point x="430.0" y="890.0" type="qcurve" smooth="yes"/>
      <point x="1003.0" y="0.0" type="line"/>
      <point x="1290.0" y="0.0" type="line"/>
      <point x="1290.0" y="1456.0" type="line"/>
      <point x="1106.0" y="1456.0" type="line"/>
      <point x="1106.0" y="616.0" type="line" smooth="yes"/>
      <point x="1106.0" y="586.0"/>
      <point x="1108.0" y="511.0"/>
      <point x="1112.0" y="481.0" type="qcurve"/>
      <point x="1102.0" y="481.0" type="line"/>
      <point x="1088.0" y="506.0"/>
      <point x="1053.0" y="566.0"/>
      <point x="1034.0" y="596.0" type="qcurve" smooth="yes"/>
      <point x="483.0" y="1456.0" type="line"/>
      <point x="170.0" y="1456.0" type="line"/>
    </contour>
  </outline>
</glyph>
<glyph name="U" format="2">
  <advance width="1523"/>
  <unicode hex="0055"/>
  <anchor x="683.0" y="1432.0" name="top"/>
  <outline>
    <contour>
      <point x="155.0" y="470.0" type="line" smooth="yes"/>
      <point x="155.0" y="220.0"/>
      <point x="509.0" y="-30.0"/>
      <point x="762.0" y="-30.0" type="qcurve" smooth="yes"/>
      <point x="1014.0" y="-30.0"/>
      <point x="1368.0" y="220.0"/>
      <point x="1368.0" y="470.0" type="qcurve" smooth="yes"/>
      <point x="1368.0" y="1456.0" type="line"/>
      <point x="1176.0" y="1456.0" type="line"/>
      <point x="1176.0" y="470.0" type="line" smooth="yes"/>
      <point x="1176.0" y="300.0"/>
      <point x="991.0" y="134.0"/>
      <point x="841.0" y="134.0" type="qcurve" smooth="yes"/>
      <point x="691.0" y="134.0"/>
      <point x="505.0" y="300.0"/>
      <point x="505.0" y="470.0" type="qcurve" smooth="yes"/>
      <point x="505.0" y="1456.0" type="line"/>
      <point x="155.0" y="1456.0" type="line"/>
    </contour>
  </outline>
</glyph>
<glyph name="X" format="2">
  <advance width="1422"/>
  <unicode hex="0058"/>
  <outline>
    <contour>
      <point x="25.0" y="0.0" type="line"/>
      <point x="337.0" y="0.0" type="line"/>
      <point x="759.0" y="670.0" type="line"/>
      <point x="873.0" y="670.0" type="line"/>
      <point x="1372.0" y="1456.0" type="line"/>
      <point x="1060.0" y="1456.0" type="line"/>
      <point x="663.0" y="806.0" type="line"/>
      <point x="549.0" y="806.0" type="line"/>
    </contour>
    <contour>
      <point x="50.0" y="1456.0" type="line"/>
      <point x="549.0" y="670.0" type="line"/>
      <point x="559.0" y="670.0" type="line"/>
      <point x="981.0" y="0.0" type="line"/>
      <point x="1397.0" y="0.0" type="line"/>
      <point x="873.0" y="806.0" type="line"/>
      <point x="863.0" y="806.0" type="line"/>
      <point x="466.0" y="1456.0" type="line"/>
    </contour>
  </outline>
</glyph>
<glyph name="Y" format="2">
  <advance width="1416"/>
  <unicode hex="0059"/>
  <anchor x="753.0" y="1432.0" name="top"/>
  <outline>
    <contour>
      <point x="550.0" y="0.0" type="line"/>
      <point x="900.0" y="0.0" type="line"/>
      <point x="900.0" y="544.0" type="line"/>
      <point x="1401.0" y="1456.0" type="line"/>
      <point x="1191.0" y="1456.0" type="line"/>
      <point x="858.0" y="842.0" type="line" smooth="yes"/>
      <point x="842.0" y="812.0"/>
      <point x="818.0" y="750.0"/>
      <point x="807.0" y="720.0" type="qcurve"/>
      <point x="801.0" y="720.0" type="line"/>
      <point x="790.0" y="750.0"/>
      <point x="764.0" y="809.0"/>
      <point x="747.0" y="840.0" type="qcurve" smooth="yes"/>
      <point x="417.0" y="1456.0" type="line"/>
      <point x="15.0" y="1456.0" type="line"/>
      <point x="550.0" y="504.0" type="line"/>
    </contour>
  </outline>
</glyph>
<glyph name="Z" format="2">
  <advance width="1340"/>
  <unicode hex="005A"/>
  <outline>
    <contour>
      <point x="36.0" y="0.0" type="line"/>
      <point x="1304.0" y="0.0" type="line"/>
      <point x="1304.0" y="158.0" type="line"/>
      <point x="477.0" y="158.0" type="line"/>
      <point x="1272.0" y="1316.0" type="line"/>
      <point x="1272.0" y="1456.0" type="line"/>
      <point x="48.0" y="1456.0" type="line"/>
      <point x="48.0" y="1298.0" type="line"/>
      <point x="824.0" y="1298.0" type="line"/>
      <point x="36.0" y="140.0" type="line"/>
    </contour>
  </outline>
</glyph>
<glyph name="asciicircum" format="2">
  <advance width="1370"/>
  <unicode hex="005E"/>
  <outline>
    <contour>
      <point x="25.0" y="720.0" type="line"/>
      <point x="425.0" y="720.0" type="line"/>
      <point x="685.0" y="1290.0" type="line"/>
      <point x="945.0" y="720.0" type="line"/>
      <point x="1345.0" y="720.0" type="line"/>
      <point x="870.0" y="1456.0" type="line"/>
      <point x="500.0" y="1456.0" type="line"/>
    </contour>
  </outline>
</glyph>
<glyph name="b" format="2">
  <advance width="1484"/>
  <unicode hex="0062"/>
  <outline>
    <contour>
      <point x="148.0" y="0.0" type="line"/>
      <point x="470.0" y="0.0" type="line"/>
      <point x="478.0" y="137.0" type="line"/>
      <point x="484.0" y="137.0" type="line"/>
      <point x="525.0" y="72.0"/>
      <point x="715.0" y="-20.0"/>
      <point x="839.0" y="-20.0" type="qcurve" smooth="yes"/>
      <point x="1094.0" y="-20.0"/>
      <point x="1399.0" y="280.0"/>
      <point x="1399.0" y="510.0" type="qcurve" smooth="yes"/>
      <point x="1399.0" y="542.0" type="line" smooth="yes"/>
      <point x="1399.0" y="772.0"/>
      <point x="1094.0" y="1072.0"/>
      <point x="839.0" y="1072.0" type="qcurve" smooth="yes"/>
      <point x="715.0" y="1072.0"/>
      <point x="536.0" y="993.0"/>
      <point x="488.0" y="928.0" type="qcurve"/>
      <point x="488.0" y="1536.0" type="line"/>
      <point x="148.0" y="1536.0" type="line"/>
    </contour>
    <contour>
      <point x="488.0" y="312.0" type="qcurve"/>
      <point x="488.0" y="740.0" type="line"/>
      <point x="519.0" y="810.0"/>
      <point x="659.0" y="920.0"/>
      <point x="759.0" y="920.0" type="qcurve" smooth="yes"/>
      <point x="909.0" y="920.0"/>
      <point x="1049.0" y="702.0"/>
      <point x="1049.0" y="542.0" type="qcurve" smooth="yes"/>
      <point x="1049.0" y="510.0" type="line" smooth="yes"/>
      <point x="1049.0" y="350.0"/>
      <point x="909.0" y="132.0"/>
      <point x="759.0" y="132.0" type="qcurve" smooth="yes"/>
      <point x="659.0" y="132.0"/>
      <point x="519.0" y="242.0"/>
    </contour>
  </outline>
</glyph>
<glyph name="e" format="2">
  <advance width="1360"/>
  <unicode hex="0065"/>
  <anchor x="708.0" y="1053.0" name="top"/>
  <outline>
    <contour>
      <point x="85.0" y="510.0" type="line" smooth="yes"/>
      <point x="85.0" y="272.0"/>
      <point x="424.0" y="-30.0"/>
      <point x="741.0" y="-30.0" type="qcurve" smooth="yes"/>
      <point x="935.0" y="-30.0"/>
      <point x="1215.0" y="100.0"/>
      <point x="1270.0" y="175.0" type="qcurve"/>
      <point x="1050.0" y="270.0" type="line"/>
      <point x="1004.0" y="210.0"/>
      <point x="848.0" y="122.0"/>
      <point x="741.0" y="122.0" type="qcurve" smooth="yes"/>
      <point x="579.0" y="122.0"/>
      <point x="425.0" y="347.0"/>
      <point x="425.0" y="510.0" type="qcurve" smooth="yes"/>
      <point x="425.0" y="542.0" type="line" smooth="yes"/>
      <point x="425.0" y="705.0"/>
      <point x="571.0" y="930.0"/>
      <point x="711.0" y="930.0" type="qcurve" smooth="yes"/>
      <point x="851.0" y="930.0"/>
      <point x="968.0" y="760.0"/>
      <point x="968.0" y="632.0" type="qcurve"/>
      <point x="968.0" y="632.0" type="line"/>
      <point x="349.0" y="632.0" type="line"/>
      <point x="349.0" y="484.0" type="line"/>
      <point x="1308.0" y="484.0" type="line"/>
      <point x="1308.0" y="560.0" type="line" smooth="yes"/>
      <point x="1308.0" y="800.0"/>
      <point x="998.0" y="1082.0"/>
      <point x="711.0" y="1082.0" type="qcurve" smooth="yes"/>
      <point x="429.0" y="1082.0"/>
      <point x="85.0" y="780.0"/>
      <point x="85.0" y="542.0" type="qcurve" smooth="yes"/>
    </contour>
  </outline>
</glyph>
<glyph name="f" format="2">
  <advance width="754"/>
  <unicode hex="0066"/>
  <outline>
    <contour>
      <point x="196.0" y="0.0" type="line"/>
      <point x="536.0" y="0.0" type="line"/>
      <point x="536.0" y="970.0" type="line"/>
      <point x="536.0" y="992.0" type="line"/>
      <point x="536.0" y="1200.0" type="line" smooth="yes"/>
      <point x="536.0" y="1300.0"/>
      <point x="634.0" y="1400.0"/>
      <point x="724.0" y="1400.0" type="qcurve" smooth="yes"/>
      <point x="750.0" y="1400.0"/>
      <point x="800.0" y="1394.0"/>
      <point x="822.0" y="1390.0" type="qcurve"/>
      <point x="832.0" y="1540.0" type="line"/>
      <point x="802.0" y="1548.0"/>
      <point x="736.0" y="1556.0"/>
      <point x="704.0" y="1556.0" type="qcurve" smooth="yes"/>
      <point x="469.0" y="1556.0"/>
      <point x="196.0" y="1374.0"/>
      <point x="196.0" y="1200.0" type="qcurve" smooth="yes"/>
    </contour>
    <contour>
      <point x="25.0" y="910.0" type="line"/>
      <point x="764.0" y="910.0" type="line"/>
      <point x="764.0" y="1052.0" type="line"/>
      <point x="389.0" y="1052.0" type="line"/>
      <point x="343.0" y="1052.0" type="line"/>
      <point x="25.0" y="1052.0" type="line"/>
    </contour>
  </outline>
</glyph>
<glyph name="m" format="2">
  <advance width="2226"/>
  <unicode hex="006D"/>
  <outline>
    <contour>
      <point x="148.0" y="0.0" type="line"/>
      <point x="488.0" y="0.0" type="line"/>
      <point x="488.0" y="744.0" type="line"/>
      <point x="526.0" y="820.0"/>
      <point x="655.0" y="916.0"/>
      <point x="741.0" y="916.0" type="qcurve" smooth="yes"/>
      <point x="840.0" y="916.0"/>
      <point x="948.0" y="807.0"/>
      <point x="948.0" y="681.0" type="qcurve" smooth="yes"/>
      <point x="948.0" y="0.0" type="line"/>
      <point x="1288.0" y="0.0" type="line"/>
      <point x="1288.0" y="744.0" type="line"/>
      <point x="1326.0" y="820.0"/>
      <point x="1455.0" y="916.0"/>
      <point x="1541.0" y="916.0" type="qcurve" smooth="yes"/>
      <point x="1640.0" y="916.0"/>
      <point x="1748.0" y="807.0"/>
      <point x="1748.0" y="681.0" type="qcurve" smooth="yes"/>
      <point x="1748.0" y="0.0" type="line"/>
      <point x="2088.0" y="0.0" type="line"/>
      <point x="2088.0" y="679.0" type="line" smooth="yes"/>
      <point x="2088.0" y="891.0"/>
      <point x="1842.0" y="1072.0"/>
      <point x="1636.0" y="1072.0" type="qcurve" smooth="yes"/>
      <point x="1516.0" y="1072.0"/>
      <point x="1304.0" y="988.0"/>
      <point x="1226.0" y="894.0" type="qcurve"/>
      <point x="1222.0" y="894.0" type="line"/>
      <point x="1174.0" y="988.0"/>
      <point x="976.0" y="1072.0"/>
      <point x="836.0" y="1072.0" type="qcurve" smooth="yes"/>
      <point x="727.0" y="1072.0"/>
      <point x="543.0" y="988.0"/>
      <point x="484.0" y="917.0" type="qcurve"/>
      <point x="478.0" y="917.0" type="line"/>
      <point x="470.0" y="1052.0" type="line"/>
      <point x="148.0" y="1052.0" type="line"/>
    </contour>
  </outline>
</glyph>
<glyph name="n" format="2">
  <advance width="1446"/>
  <unicode hex="006E"/>
  <anchor x="751.0" y="1052.0" name="top"/>
  <outline>
    <contour>
      <point x="148.0" y="0.0" type="line"/>
      <point x="488.0" y="0.0" type="line"/>
      <point x="488.0" y="744.0" type="line"/>
      <point x="526.0" y="820.0"/>
      <point x="662.0" y="916.0"/>
      <point x="751.0" y="916.0" type="qcurve" smooth="yes"/>
      <point x="855.0" y="916.0"/>
      <point x="968.0" y="807.0"/>
      <point x="968.0" y="681.0" type="qcurve" smooth="yes"/>
      <point x="968.0" y="0.0" type="line"/>
      <point x="1308.0" y="0.0" type="line"/>
      <point x="1308.0" y="679.0" type="line" smooth="yes"/>
      <point x="1308.0" y="891.0"/>
      <point x="1057.0" y="1072.0"/>
      <point x="846.0" y="1072.0" type="qcurve" smooth="yes"/>
      <point x="734.0" y="1072.0"/>
      <point x="544.0" y="989.0"/>
      <point x="484.0" y="917.0" type="qcurve"/>
      <point x="478.0" y="917.0" type="line"/>
      <point x="470.0" y="1052.0" type="line"/>
      <point x="148.0" y="1052.0" type="line"/>
    </contour>
  </outline>
</glyph>
<glyph name="o" format="2">
  <advance width="1482"/>
  <unicode hex="006F"/>
  <anchor x="741.0" y="1052.0" name="top"/>
  <outline>
    <contour>
      <point x="85.0" y="510.0" type="line" smooth="yes"/>
      <point x="85.0" y="272.0"/>
      <point x="442.0" y="-30.0"/>
      <point x="741.0" y="-30.0" type="qcurve" smooth="yes"/>
      <point x="1040.0" y="-30.0"/>
      <point x="1397.0" y="272.0"/>
      <point x="1397.0" y="510.0" type="qcurve" smooth="yes"/>
      <point x="1397.0" y="542.0" type="line" smooth="yes"/>
      <point x="1397.0" y="780.0"/>
      <point x="1040.0" y="1082.0"/>
      <point x="741.0" y="1082.0" type="qcurve" smooth="yes"/>
      <point x="442.0" y="1082.0"/>
      <point x="85.0" y="780.0"/>
      <point x="85.0" y="542.0" type="qcurve" smooth="yes"/>
    </contour>
    <contour>
      <point x="435.0" y="542.0" type="line" smooth="yes"/>
      <point x="435.0" y="705.0"/>
      <point x="589.0" y="930.0"/>
      <point x="741.0" y="930.0" type="qcurve" smooth="yes"/>
      <point x="893.0" y="930.0"/>
      <point x="1047.0" y="705.0"/>
      <point x="1047.0" y="542.0" type="qcurve" smooth="yes"/>
      <point x="1047.0" y="510.0" type="line" smooth="yes"/>
      <point x="1047.0" y="347.0"/>
      <point x="893.0" y="122.0"/>
      <point x="741.0" y="122.0" type="qcurve" smooth="yes"/>
      <point x="589.0" y="122.0"/>
      <point x="435.0" y="347.0"/>
      <point x="435.0" y="510.0" type="qcurve" smooth="yes"/>
    </contour>
  </outline>
</glyph>
<glyph name="u" format="2">
  <advance width="1446"/>
  <unicode hex="0075"/>
  <anchor x="718.0" y="1052.0" name="top"/>
  <outline>
    <contour>
      <point x="138.0" y="373.0" type="line" smooth="yes"/>
      <point x="138.0" y="161.0"/>
      <point x="389.0" y="-20.0"/>
      <point x="600.0" y="-20.0" type="qcurve" smooth="yes"/>
      <point x="712.0" y="-20.0"/>
      <point x="902.0" y="63.0"/>
      <point x="962.0" y="135.0" type="qcurve"/>
      <point x="968.0" y="135.0" type="line"/>
      <point x="976.0" y="0.0" type="line"/>
      <point x="1298.0" y="0.0" type="line"/>
      <point x="1298.0" y="1052.0" type="line"/>
      <point x="958.0" y="1052.0" type="line"/>
      <point x="958.0" y="308.0" type="line"/>
      <point x="920.0" y="232.0"/>
      <point x="784.0" y="136.0"/>
      <point x="695.0" y="136.0" type="qcurve" smooth="yes"/>
      <point x="591.0" y="136.0"/>
      <point x="478.0" y="245.0"/>
      <point x="478.0" y="371.0" type="qcurve" smooth="yes"/>
      <point x="478.0" y="1052.0" type="line"/>
      <point x="138.0" y="1052.0" type="line"/>
    </contour>
  </outline>
</glyph>
<glyph name="x" format="2">
  <advance width="1115"/>
  <unicode hex="0078"/>
  <outline>
    <contour>
      <point x="80.0" y="0.0" type="line"/>
      <point x="279.0" y="0.0" type="line"/>
      <point x="596.0" y="484.0" type="line"/>
      <point x="608.0" y="484.0" type="line"/>
      <point x="988.0" y="1052.0" type="line"/>
      <point x="779.0" y="1052.0" type="line"/>
      <point x="479.0" y="582.0" type="line"/>
      <point x="469.0" y="582.0" type="line"/>
    </contour>
    <contour>
      <point x="20.0" y="1052.0" type="line"/>
      <point x="447.0" y="384.0" type="line"/>
      <point x="455.0" y="384.0" type="line"/>
      <point x="672.0" y="0.0" type="line"/>
      <point x="1095.0" y="0.0" type="line"/>
      <point x="671.0" y="660.0" type="line"/>
      <point x="663.0" y="660.0" type="line"/>
      <point x="433.0" y="1052.0" type="line"/>
    </contour>
  </outline>
</glyph>
<glyph name="braceright" format="2">
  <advance width="700"/>
  <unicode hex="007D"/>
  <outline>
    <contour>
      <point x="30.0" y="-312.0" type="line"/>
      <point x="256.0" y="-312.0"/>
      <point x="511.0" y="-32.0"/>
      <point x="474.0" y="123.0" type="qcurve" smooth="yes"/>
      <point x="424.0" y="334.0" type="line" smooth="yes"/>
      <point x="399.0" y="441.0"/>
      <point x="524.0" y="508.0"/>
      <point x="636.0" y="508.0" type="qcurve"/>
      <point x="636.0" y="640.0" type="line"/>
      <point x="524.0" y="640.0"/>
      <point x="399.0" y="707.0"/>
      <point x="424.0" y="814.0" type="qcurve" smooth="yes"/>
      <point x="474.0" y="1025.0" type="line" smooth="yes"/>
      <point x="511.0" y="1180.0"/>
      <point x="256.0" y="1460.0"/>
      <point x="30.0" y="1460.0" type="qcurve"/>
      <point x="30.0" y="1314.0" type="line"/>
      <point x="178.0" y="1314.0"/>
      <point x="317.0" y="1146.0"/>
      <point x="288.0" y="1025.0" type="qcurve" smooth="yes"/>
      <point x="238.0" y="814.0" type="line" smooth="yes"/>
      <point x="218.0" y="730.0"/>
      <point x="290.0" y="600.0"/>
      <point x="388.0" y="574.0" type="qcurve"/>
      <point x="290.0" y="548.0"/>
      <point x="218.0" y="418.0"/>
      <point x="238.0" y="334.0" type="qcurve" smooth="yes"/>
      <point x="288.0" y="123.0" type="line" smooth="yes"/>
      <point x="317.0" y="2.0"/>
      <point x="178.0" y="-166.0"/>
      <point x="30.0" y="-166.0" type="qcurve"/>
    </contour>
  </outline>
</glyph>
